{"title":"Wolke Neun aka Cloud 9 (2008)","uid":8352537,"size":1459150285,"categoryP":"video","categoryS":"movies","magnet":"?xt=urn:btih:14e02fc4f4c521cb79371dad6e8e8ec7dc57afde&amp;dn=Wolke+Neun+aka+Cloud+9+%282008%29&amp;tr=udp%3A%2F%2Ftracker.openbittorrent.com%3A80&amp;tr=udp%3A%2F%2Fopen.demonii.com%3A1337&amp;tr=udp%3A%2F%2Ftracker.coppersurfer.tk%3A6969&amp;tr=udp%3A%2F%2Fexodus.desync.com%3A6969","seeders":2,"leechers":1,"uploader":"Aaaameida","files":-1,"time":1365384887,"description":"Language: Russian / German (release with two audio channels, the second is the original)\n\nSubtitles: English and Portuguese\n &lt;a href=&quot;\nhttp://www.imdb.com/title/tt1037228&quot; rel=&quot;nofollow&quot; target=&quot;_NEW&quot;&gt;\nhttp://www.imdb.com/title/tt1037228&lt;/a&gt;\n\nA romantic drama about a woman who enters into an affair after 30 years of marriage.\n\n\n\n      Format : AVI\n      Format/Info : Audio Video Interleave\n      File size : 1.36 GiB\n      Duration : 1h 35mn\n      Overall bit rate : 2 036 Kbps\n      Movie name : Na.devyatom.nebe.2008.XviD.DVDRip.Dim-Dim\n      Director : Dim-Dim Studio\n      Recorded date : 08.08.2009\n      Writing application : VirtualDubMod 1.5.10.2 (build 2540/release)\n      Writing library : VirtualDubMod build 2540/release\n   Video #0\n      ID : 0\n      Format : MPEG-4 Visual\n      Format profile : AdvancedSimple@L5\n      Format settings, BVOP : Yes\n      Format settings, QPel : No\n      Format settings, GMC : No warppoints\n      Format settings, Matrix : Default (MPEG)\n      Muxing mode : Packed bitstream\n      Codec ID : XVID\n      Codec ID/Hint : XviD\n      Duration : 1h 35mn\n      Bit rate : 1 606 Kbps\n      Width : 704 pixels\n      Height : 384 pixels\n      Display aspect ratio : 16:9\n      Frame rate : 25.000 fps\n      Resolution : 24 bits\n      Colorimetry : 4:2:0\n      Scan type : Progressive\n      Bits/(Pixel*Frame) : 0.238\n      Stream size : 1.07 GiB (79%)\n      Writing library : XviD 1.2.0.dev47 (UTC 2006-11-01)\n   Audio #1\n      ID : 1\n      Format : AC-3\n      Format/Info : Audio Coding 3\n      Codec ID : 2000\n      Duration : 1h 35mn\n      Bit rate mode : Constant\n      Bit rate : 192 Kbps\n      Channel(s) : 2 channels\n      Channel positions : L R\n      Sampling rate : 48.0 KHz\n      Stream size : 131 MiB (9%)\n      Alignment : Split accross interleaves\n      Interleave, duration : 40 ms (1.00 video frame)\n      Interleave, preload duration : 500 ms\n   Audio #2\n      ID : 2\n      Format : AC-3\n      Format/Info : Audio Coding 3\n      Codec ID : 2000\n      Duration : 1h 35mn\n      Bit rate mode : Constant\n      Bit rate : 224 Kbps\n      Channel(s) : 6 channels\n      Channel positions : Front: L C R, Surround: L R, LFE\n      Sampling rate : 48.0 KHz\n      Stream size : 153 MiB (11%)\n      Alignment : Split accross interleaves\n      Interleave, duration : 40 ms (1.00 video frame)\n      Interleave, preload duration : 500 ms","torrent":{"xt":"urn:btih:14e02fc4f4c521cb79371dad6e8e8ec7dc57afde","amp;dn":"Wolke+Neun+aka+Cloud+9+%282008%29","amp;tr":["udp%3A%2F%2Ftracker.openbittorrent.com%3A80","udp%3A%2F%2Fopen.demonii.com%3A1337","udp%3A%2F%2Ftracker.coppersurfer.tk%3A6969","udp%3A%2F%2Fexodus.desync.com%3A6969"],"infoHash":"14e02fc4f4c521cb79371dad6e8e8ec7dc57afde","infoHashBuffer":{"type":"Buffer","data":[20,224,47,196,244,197,33,203,121,55,29,173,110,142,142,199,220,87,175,222]},"announce":[],"urlList":[]}}